<?xml version="1.0" standalone="no"?><!DOCTYPE svg PUBLIC "-//W3C//DTD SVG 1.1//EN" "http://www.w3.org/Graphics/SVG/1.1/DTD/svg11.dtd"><svg t="1543045804130" class="icon" style="" viewBox="0 0 1024 1024" version="1.1" xmlns="http://www.w3.org/2000/svg" p-id="2827" xmlns:xlink="http://www.w3.org/1999/xlink" width="64" height="64"><defs><style type="text/css"></style></defs><path d="M567.23363335 346.29910124h-110.4672667v110.46726541h110.4672667v-110.46726541z m220.93453083 0h-110.46726542v110.46726541h110.46726542v-110.46726541z m165.70089876 359.01861355c-68.76587298 0-135.0462325-11.04672615-197.18406953-31.48317077-19.05560336-6.07569919-40.87288794-1.65700898-56.06213655 13.53224094l-121.51399286 121.79016059a833.22696944 833.22696944 0 0 1-363.98964052-363.71347279l121.51399156-121.79016059c15.18924863-15.18924863 19.60794012-37.00653449 13.53224094-56.06213786C329.72901136 205.45333728 318.68228521 138.89681004 318.68228521 70.13093706c0-30.65466627-24.57896708-55.23363335-55.23363336-55.23363336H70.13093706c-30.65466627 0-55.23363335 24.57896708-55.23363336 55.23363336 0 518.64381314 420.3279461 938.97175924 938.97175924 938.97175924 30.65466627 0 55.23363335-24.57896708 55.23363336-55.23363336v-193.31771479c0-30.65466627-24.57896708-55.23363335-55.23363336-55.23363336z m-55.23363206-359.01861355v110.46726541h110.46726542v-110.46726541h-110.46726542z" fill="" p-id="2828"></path></svg>