<?xml version="1.0" standalone="no"?><!DOCTYPE svg PUBLIC "-//W3C//DTD SVG 1.1//EN" "http://www.w3.org/Graphics/SVG/1.1/DTD/svg11.dtd"><svg t="1543045817157" class="icon" style="" viewBox="0 0 1024 1024" version="1.1" xmlns="http://www.w3.org/2000/svg" p-id="2957" xmlns:xlink="http://www.w3.org/1999/xlink" width="64" height="64"><defs><style type="text/css"></style></defs><path d="M950.272 734.89066667c-145.74933333-117.19111111-186.48177778-59.61955555-252.58666667 6.59911111-46.30755555 46.08-163.04355555-50.28977778-263.96444444-151.21066667-100.92088889-100.80711111-197.40444445-217.65688889-151.09688889-263.85066666 66.10488889-66.10488889 123.67644445-106.83733333 6.59911111-252.58666667-117.19111111-145.86311111-195.35644445-33.90577778-259.41333333 30.15111111-73.84177778 73.95555555-3.86844445 349.41155555 268.40177777 621.79555556 272.27022222 272.27022222 547.84 342.35733333 621.79555556 268.40177777 64.05688889-64.05688889 176.01422222-142.10844445 30.26488889-259.29955555z" fill="" p-id="2958"></path><path d="M512 366.36444445h1.25155555c38.22933333 0.45511111 74.06933333 15.58755555 101.14844445 42.66666666 27.53422222 27.53422222 42.66666667 64.05688889 42.66666667 102.96888889v0.11377778h0.45511111c0 20.13866667 16.27022222 36.40888889 36.40888889 36.40888889s36.40888889-16.27022222 36.40888888-36.40888889c0-2.27555555-0.22755555-4.43733333-0.56888888-6.48533333C726.47111111 387.98222222 630.21511111 293.77422222 512 293.54666667c-20.13866667 0-36.40888889 16.27022222-36.40888889 36.40888888s16.27022222 36.40888889 36.40888889 36.4088889z" fill="" p-id="2959"></path><path d="M512 220.72888889h1.36533333c38.68444445 0.22755555 76.23111111 7.85066667 111.50222222 22.86933333 34.70222222 14.67733333 65.87733333 35.72622222 92.61511112 62.464 26.73777778 26.73777778 47.78666667 57.91288889 62.464 92.61511111 15.13244445 35.84 22.86933333 73.95555555 22.86933333 113.32266667v0.11377778h0.45511111c0 20.13866667 16.27022222 36.40888889 36.40888889 36.40888889s36.40888889-16.27022222 36.40888889-36.40888889c0-2.16177778-0.22755555-4.32355555-0.56888889-6.37155556-3.41333333-197.97333333-164.75022222-357.48977778-363.52-357.71733333-20.13866667 0-36.40888889 16.27022222-36.40888889 36.40888889 0 20.02488889 16.27022222 36.29511111 36.40888889 36.29511111z" fill="" p-id="2960"></path><path d="M512 75.32088889c1.47911111 0 2.95822222-0.11377778 4.43733333-0.22755556 57.23022222 0.56888889 112.75377778 12.17422222 165.09155556 34.24711112 51.99644445 21.95911111 98.75911111 53.47555555 138.92266666 93.6391111s71.68 86.92622222 93.63911112 138.92266667c22.18666667 52.56533333 33.792 108.43022222 34.24711111 165.888-0.11377778 1.36533333-0.22755555 2.73066667-0.22755556 4.20977778 0 20.13866667 16.27022222 36.40888889 36.40888889 36.40888889s36.40888889-16.27022222 36.40888889-36.40888889h0.22755555v-0.11377778c0-278.98311111-224.14222222-505.62844445-502.2151111-509.61066667H512v0.22755556c-20.13866667 0-36.40888889 16.27022222-36.40888889 36.40888889s16.27022222 36.40888889 36.40888889 36.40888889z" fill="" p-id="2961"></path></svg>