<?xml version="1.0" standalone="no"?><!DOCTYPE svg PUBLIC "-//W3C//DTD SVG 1.1//EN" "http://www.w3.org/Graphics/SVG/1.1/DTD/svg11.dtd"><svg t="1543308187633" class="icon" style="" viewBox="0 0 1024 1024" version="1.1" xmlns="http://www.w3.org/2000/svg" p-id="2729" xmlns:xlink="http://www.w3.org/1999/xlink" width="64" height="64"><defs><style type="text/css"></style></defs><path d="M-2.41257317 511.92458769c0 60.15389403 48.69122137 108.87025285 108.79484054 108.87025284 60.15389403 0 108.79484053-48.71635881 108.79484052-108.87025284 0-60.0030694-48.66608394-108.71942821-108.79484052-108.71942822C46.27864819 403.20515947-2.41257317 451.92151828-2.41257317 511.92458769z" p-id="2730"></path><path d="M409.76603133 511.92458769c0 60.15389403 48.74149627 108.87025285 108.79484051 108.87025284 60.1287566 0 108.84511542-48.71635881 108.84511545-108.87025284 0-60.0030694-48.71635881-108.71942821-108.84511545-108.71942822C458.50752757 403.20515947 409.76603133 451.92151828 409.76603133 511.92458769z" p-id="2731"></path><path d="M808.7474798 511.92458769c0 60.15389403 48.71635881 108.87025285 108.81997796 108.87025284 60.1287566 0 108.84511542-48.71635881 108.84511541-108.87025284 0-60.0030694-48.71635881-108.71942821-108.84511541-108.71942822C857.4638386 403.20515947 808.7474798 451.92151828 808.7474798 511.92458769z" p-id="2732"></path></svg>