<?xml version="1.0" standalone="no"?><!DOCTYPE svg PUBLIC "-//W3C//DTD SVG 1.1//EN" "http://www.w3.org/Graphics/SVG/1.1/DTD/svg11.dtd"><svg t="1543045834899" class="icon" style="" viewBox="0 0 1024 1024" version="1.1" xmlns="http://www.w3.org/2000/svg" p-id="3084" xmlns:xlink="http://www.w3.org/1999/xlink" width="64" height="64"><defs><style type="text/css"></style></defs><path d="M206.16533333 444.06101333c79.29856 158.59712 215.24935111 288.86812445 373.77365334 373.77365334l124.59121778-124.59121778c16.96654222-16.96654222 39.68568889-22.64632889 56.6522311-11.35957334 62.33201778 22.64632889 130.27100445 34.00590222 203.88977778 34.00590223 34.00590222 0 56.65223111 22.64632889 56.65223112 56.65223111l0 192.53020444C1021.72444445 999.07811555 999.07811555 1021.72444445 965.07221333 1021.72444445 432.70144 1021.72444445 2.27555555 591.29856 2.27555555 58.92778667 2.27555555 24.92188445 24.92188445 2.27555555 58.92778667 2.27555555L257.13777778 2.27555555c34.00590222 0 56.65223111 22.64632889 56.65223111 56.65223112 0 67.93898667 11.28675555 135.95079111 34.00590222 203.88977778 5.67978667 16.96654222 0 39.61287111-11.35957333 56.6522311L206.16533333 444.06101333z" p-id="3085"></path></svg>